<svg width="501" height="104" viewBox="0 0 501 104" fill="none" xmlns="http://www.w3.org/2000/svg">
<path d="M42.5499 84.64C29.6699 84.64 19.3583 80.8067 11.6149 73.14C3.87159 65.4734 -7.77617e-05 55.085 -7.77617e-05 41.975C-7.77617e-05 28.9417 3.83326 18.7067 11.4999 11.27C19.2433 3.75669 29.5933 2.21133e-05 42.5499 2.21133e-05C57.8066 2.21133e-05 69.6899 5.21336 78.1999 15.64L65.5499 26.335C60.3366 19.0517 52.8233 15.41 43.0099 15.41C35.1133 15.41 28.7883 17.7867 24.0349 22.54C19.2816 27.2934 16.9049 33.7717 16.9049 41.975C16.9049 50.3317 19.2816 56.9634 24.0349 61.87C28.7883 66.7767 35.1133 69.23 43.0099 69.23C52.8999 69.23 60.4133 65.6267 65.5499 58.42L78.1999 69.115C69.6899 79.465 57.8066 84.64 42.5499 84.64ZM119.164 84.41C108.738 84.41 100.343 81.4584 93.9792 75.555C87.6925 69.575 84.5492 61.5634 84.5492 51.52C84.5492 41.63 87.7308 33.7334 94.0942 27.83C100.458 21.85 108.814 18.86 119.164 18.86C129.514 18.86 137.833 21.85 144.119 27.83C150.406 33.7334 153.549 41.63 153.549 51.52C153.549 61.5634 150.406 69.575 144.119 75.555C137.833 81.4584 129.514 84.41 119.164 84.41ZM119.164 69.92C124.531 69.92 128.863 68.2334 132.159 64.86C135.533 61.4867 137.219 57.04 137.219 51.52C137.219 46.0767 135.533 41.7067 132.159 38.41C128.863 35.0367 124.531 33.35 119.164 33.35C113.721 33.35 109.313 35.0367 105.939 38.41C102.643 41.7067 100.994 46.0767 100.994 51.52C100.994 57.04 102.643 61.4867 105.939 64.86C109.313 68.2334 113.721 69.92 119.164 69.92ZM196.542 84.41C186.115 84.41 177.72 81.4584 171.357 75.555C165.07 69.575 161.927 61.5634 161.927 51.52C161.927 41.63 165.109 33.7334 171.472 27.83C177.835 21.85 186.192 18.86 196.542 18.86C206.892 18.86 215.21 21.85 221.497 27.83C227.784 33.7334 230.927 41.63 230.927 51.52C230.927 61.5634 227.784 69.575 221.497 75.555C215.21 81.4584 206.892 84.41 196.542 84.41ZM196.542 69.92C201.909 69.92 206.24 68.2334 209.537 64.86C212.91 61.4867 214.597 57.04 214.597 51.52C214.597 46.0767 212.91 41.7067 209.537 38.41C206.24 35.0367 201.909 33.35 196.542 33.35C191.099 33.35 186.69 35.0367 183.317 38.41C180.02 41.7067 178.372 46.0767 178.372 51.52C178.372 57.04 180.02 61.4867 183.317 64.86C186.69 68.2334 191.099 69.92 196.542 69.92ZM242.755 103.27V20.24H258.395V25.645C263.072 21.045 269.512 18.745 277.715 18.745C286.608 18.745 293.738 21.735 299.105 27.715C304.548 33.6184 307.27 41.5534 307.27 51.52C307.27 61.5634 304.51 69.575 298.99 75.555C293.547 81.4584 286.225 84.41 277.025 84.41C268.745 84.41 262.535 81.9184 258.395 76.935V103.27H242.755ZM273.575 70.15C278.865 70.15 283.082 68.5017 286.225 65.205C289.368 61.8317 290.94 57.27 290.94 51.52C290.94 45.6934 289.368 41.17 286.225 37.95C283.158 34.6534 279.057 33.005 273.92 33.005C270.777 33.005 267.748 33.7334 264.835 35.19C261.922 36.57 259.698 38.525 258.165 41.055V61.87C261.308 67.39 266.445 70.15 273.575 70.15ZM380.647 51.635C380.647 53.935 380.609 55.5067 380.532 56.35H331.772C332.616 61.0267 334.609 64.63 337.752 67.16C340.972 69.69 345.151 70.955 350.287 70.955C358.107 70.955 364.164 68.2717 368.457 62.905L378.462 71.415C372.252 80.0017 362.477 84.295 349.137 84.295C338.711 84.295 330.507 81.3434 324.527 75.44C318.624 69.5367 315.672 61.525 315.672 51.405C315.672 41.515 318.701 33.58 324.757 27.6C330.814 21.5434 338.672 18.515 348.332 18.515C358.836 18.515 366.847 21.5434 372.367 27.6C377.887 33.58 380.647 41.5917 380.647 51.635ZM348.332 31.74C344.116 31.74 340.551 32.8517 337.637 35.075C334.724 37.2217 332.807 40.48 331.887 44.85H365.122C364.586 41.0934 362.937 37.9884 360.177 35.535C357.417 33.005 353.469 31.74 348.332 31.74ZM390.997 83.03V20.24H406.292V28.405C411.122 22.0417 417.639 18.86 425.842 18.86C427.759 18.86 429.216 19.0517 430.212 19.435V36.57C427.299 35.8034 424.769 35.42 422.622 35.42C417.946 35.42 414.151 36.9534 411.237 40.02C408.324 43.0867 406.867 47.5334 406.867 53.36V83.03H390.997ZM465.861 84.41C456.661 84.41 449.301 81.4584 443.781 75.555C438.261 69.575 435.501 61.5634 435.501 51.52C435.501 41.5534 438.223 33.6184 443.666 27.715C449.11 21.735 456.278 18.745 465.171 18.745C473.375 18.745 479.815 21.045 484.491 25.645V20.24H500.131V83.03H484.721V76.935C480.581 81.9184 474.295 84.41 465.861 84.41ZM469.311 70.15C476.518 70.15 481.655 67.39 484.721 61.87V41.055C483.188 38.525 480.965 36.57 478.051 35.19C475.138 33.7334 472.11 33.005 468.966 33.005C463.83 33.005 459.69 34.6534 456.546 37.95C453.403 41.17 451.831 45.6934 451.831 51.52C451.831 57.27 453.403 61.8317 456.546 65.205C459.69 68.5017 463.945 70.15 469.311 70.15Z" fill="black"/>
</svg>
