<svg width="24" height="24" viewBox="0 0 24 24" fill="none" xmlns="http://www.w3.org/2000/svg">
<path fill-rule="evenodd" clip-rule="evenodd" d="M19.4392 2.38483C19.561 2.26288 19.7057 2.16613 19.865 2.10011C20.0242 2.03408 20.1949 2.00006 20.3673 2C20.5397 1.99994 20.7104 2.03383 20.8697 2.09975C21.029 2.16567 21.1738 2.26231 21.2957 2.38417C21.4177 2.50603 21.5144 2.65071 21.5804 2.80996C21.6465 2.96921 21.6805 3.13991 21.6805 3.3123C21.6806 3.4847 21.6467 3.65542 21.5808 3.81471C21.5149 3.97401 21.4182 4.11876 21.2964 4.2407L20.3684 5.16995L18.5112 3.31277L19.4392 2.38483ZM19.4392 6.09789L10.4184 15.1187H8.5625V13.2615L17.5833 4.23939L19.4392 6.09789ZM4.625 19.7059C4.45095 19.7059 4.28403 19.6368 4.16096 19.5137C4.03789 19.3906 3.96875 19.2237 3.96875 19.0496V5.92464C3.96875 5.75059 4.03789 5.58367 4.16096 5.4606C4.28403 5.33753 4.45095 5.26839 4.625 5.26839H12.8281C13.0892 5.26839 13.3396 5.16468 13.5242 4.98007C13.7088 4.79547 13.8125 4.54509 13.8125 4.28402C13.8125 4.02294 13.7088 3.77256 13.5242 3.58796C13.3396 3.40335 13.0892 3.29964 12.8281 3.29964H4.625C3.92881 3.29964 3.26113 3.5762 2.76884 4.06849C2.27656 4.56077 2 5.22845 2 5.92464V19.0496C2 19.7458 2.27656 20.4135 2.76884 20.9058C3.26113 21.3981 3.92881 21.6746 4.625 21.6746H17.75C18.4462 21.6746 19.1139 21.3981 19.6062 20.9058C20.0984 20.4135 20.375 19.7458 20.375 19.0496V10.8465C20.375 10.5854 20.2713 10.3351 20.0867 10.1505C19.9021 9.96585 19.6517 9.86214 19.3906 9.86214C19.1296 9.86214 18.8792 9.96585 18.6946 10.1505C18.51 10.3351 18.4062 10.5854 18.4062 10.8465V19.0496C18.4062 19.2237 18.3371 19.3906 18.214 19.5137C18.091 19.6368 17.924 19.7059 17.75 19.7059H4.625Z" fill="black"/>
</svg>
