<svg width="136" height="144" viewBox="0 0 136 144" fill="none" xmlns="http://www.w3.org/2000/svg">
<path d="M135.303 31.5894C135.303 26.4774 134.511 21.3714 133.143 16.2594C131.175 10.1634 126.657 5.25544 120.957 3.09544C109.123 -1.03181 96.2398 -1.03181 84.4054 3.09544C81.4491 4.11879 78.791 5.85551 76.6664 8.15174C74.5418 10.448 73.0164 13.2328 72.2254 16.2594C69.4709 26.2266 69.4709 36.7542 72.2254 46.7214C74.1814 52.8114 78.7054 57.7254 84.4054 59.8854C90.2485 62.044 96.4559 63.0446 102.681 62.8314C108.975 62.8314 115.059 61.6554 120.957 59.8854C123.915 58.8629 126.574 57.1266 128.7 54.8303C130.825 52.534 132.352 49.7488 133.143 46.7214C134.517 41.8074 135.303 36.7014 135.303 31.5894ZM115.455 31.5894C115.455 33.9474 115.065 36.7014 114.279 38.8614C113.295 42.0054 110.541 44.5614 107.199 45.3474C104.085 45.9403 100.887 45.9403 97.7734 45.3474C96.0928 45.0658 94.5299 44.3033 93.2734 43.1523C92.017 42.0013 91.1208 40.5109 90.6934 38.8614C89.1176 34.0081 89.1176 28.7807 90.6934 23.9274C91.6714 20.7834 94.4254 18.2274 97.7734 17.4414C100.887 16.8486 104.085 16.8486 107.199 17.4414C108.877 17.7302 110.436 18.4951 111.692 19.645C112.947 20.7949 113.845 22.2814 114.279 23.9274C115.059 26.6754 115.451 29.2294 115.455 31.5894ZM62.9854 114.329C65.7339 104.361 65.7339 93.8354 62.9854 83.8674C61.0234 77.7714 56.4994 72.8634 50.8054 70.6974C38.9709 66.5702 26.0878 66.5702 14.2534 70.6974C11.2953 71.7205 8.63549 73.4578 6.50977 75.7552C4.38404 78.0525 2.85813 80.839 2.06737 83.8674C-0.681122 93.8354 -0.681122 104.361 2.06737 114.329C4.03537 120.419 8.55337 125.333 14.2534 127.487C26.0878 131.615 38.9709 131.615 50.8054 127.487C53.7036 126.367 56.3076 124.599 58.4185 122.318C60.5293 120.038 62.0914 117.305 62.9854 114.329ZM45.2974 99.1914C45.2974 101.549 44.9014 104.303 44.1154 106.463C43.588 108.059 42.661 109.492 41.4227 110.627C40.1845 111.763 38.6761 112.562 37.0414 112.949C33.9254 113.543 30.7253 113.543 27.6094 112.949C25.9328 112.66 24.3747 111.894 23.1207 110.744C21.8666 109.595 20.9692 108.109 20.5354 106.463C18.9637 101.609 18.9637 96.3834 20.5354 91.5294C21.0627 89.9344 21.9897 88.5009 23.228 87.3655C24.4663 86.2302 25.9746 85.4308 27.6094 85.0434C30.7253 84.4498 33.9254 84.4498 37.0414 85.0434C38.718 85.3332 40.276 86.0986 41.5301 87.2484C42.7842 88.3983 43.6815 89.8842 44.1154 91.5294C44.9034 94.0854 45.2974 96.6394 45.2974 99.1914ZM45.2974 31.3914H65.1454C65.1454 26.2854 64.3594 21.1734 62.9854 16.2654C61.0234 10.1694 56.4994 5.26144 50.8054 3.10144C38.9709 -1.02581 26.0878 -1.02581 14.2534 3.10144C8.15737 5.45344 3.63937 10.3674 2.06137 16.4574C-0.687122 26.4255 -0.687122 36.9514 2.06137 46.9194C4.02937 53.0094 8.54737 57.9234 14.2474 60.0834C20.1394 62.2434 26.2354 63.0354 32.5234 63.0354C38.8114 63.0354 44.9014 61.8534 50.7994 60.0834C53.7556 59.0601 56.4138 57.3234 58.5383 55.0271C60.6629 52.7309 62 51 63.5 47.5C64.5 46 65 40.5 65.1454 39.0594L45 38.8614C44.802 40.0374 44.7094 39.818 44.3134 41C43.3354 44.144 40.5814 44.7594 37.2394 45.5454C34.1234 46.1391 30.9233 46.1391 27.8074 45.5454C26.1308 45.2556 24.5727 44.4903 23.3187 43.3404C22.0646 42.1906 21.1672 40.7046 20.7334 39.0594C19.1617 34.2055 19.1617 28.9794 20.7334 24.1254C21.7174 20.9814 24.4654 18.4254 27.8074 17.6334C30.9233 17.0398 34.1234 17.0398 37.2394 17.6334C38.9167 17.9237 40.4753 18.6899 41.7294 19.8409C42.9836 20.9919 43.8805 22.4791 44.3134 24.1254C44.9014 26.6754 45.2974 29.0334 45.2974 31.3914ZM71.8234 84.0654C70.4021 89.0519 69.6753 94.2104 69.6634 99.3954V143.999H89.5114V99.1914C89.5114 96.8334 89.9014 94.0794 90.6874 91.9194C91.6654 88.7754 94.4194 86.2194 97.7674 85.4334C100.881 84.8406 104.079 84.8406 107.193 85.4334C108.871 85.7222 110.43 86.4871 111.686 87.637C112.941 88.7869 113.839 90.2734 114.273 91.9194C115.845 96.7734 115.845 101.999 114.273 106.853C113.289 109.991 110.535 112.553 107.397 113.333C104.281 113.927 102.5 114 98 114C97.5 114 97 114 96 114L96.0034 130C102.297 130 115.059 130.037 120.957 128.273C123.912 127.246 126.569 125.508 128.694 123.213C130.819 120.917 132.347 118.134 133.143 115.109C135.892 105.141 135.892 94.6154 133.143 84.6474C131.175 78.5514 126.657 73.6434 120.957 71.4774C109.123 67.3502 96.2398 67.3502 84.4054 71.4774C78.3094 73.0554 73.7914 77.9694 71.8234 84.0654Z" fill="black"/>
</svg>
