<svg width="24" height="24" viewBox="0 0 24 24" fill="none" xmlns="http://www.w3.org/2000/svg">
<path fill-rule="evenodd" clip-rule="evenodd" d="M9.707 2.40992C9 3.03692 9 4.18392 9 6.47692V17.5249C9 19.8179 9 20.9649 9.707 21.5919C10.414 22.2189 11.495 22.0309 13.657 21.6539L15.987 21.2479C18.381 20.8299 19.578 20.6209 20.289 19.7429C21 18.8639 21 17.5939 21 15.0529V8.94892C21 6.40892 21 5.13892 20.29 4.25992C19.578 3.38192 18.38 3.17292 15.986 2.75592L13.658 2.34892C11.496 1.97192 10.415 1.78392 9.708 2.41092M12 10.1699C12.414 10.1699 12.75 10.5209 12.75 10.9539V13.0479C12.75 13.4809 12.414 13.8319 12 13.8319C11.586 13.8319 11.25 13.4809 11.25 13.0479V10.9539C11.25 10.5209 11.586 10.1699 12 10.1699Z" fill="black"/>
<path d="M7.547 4.5C5.489 4.503 4.416 4.548 3.732 5.232C3 5.964 3 7.142 3 9.5V14.5C3 16.857 3 18.035 3.732 18.768C4.416 19.451 5.489 19.497 7.547 19.5C7.5 18.876 7.5 18.156 7.5 17.377V6.623C7.5 5.843 7.5 5.123 7.547 4.5Z" fill="black"/>
</svg>
