<svg width="24" height="24" viewBox="0 0 24 24" fill="none" xmlns="http://www.w3.org/2000/svg">
<path opacity="0.1" fill-rule="evenodd" clip-rule="evenodd" d="M0 12C0 5.37258 5.37258 0 12 0C18.6274 0 24 5.37258 24 12C24 18.6274 18.6274 24 12 24C5.37258 24 0 18.6274 0 12Z" fill="#003D6E"/>
<path fill-rule="evenodd" clip-rule="evenodd" d="M16.0876 7.07229C16.2397 7.00828 16.4062 6.98621 16.5697 7.00836C16.7332 7.03051 16.8878 7.09609 17.0173 7.19825C17.1469 7.30042 17.2467 7.43545 17.3064 7.58928C17.366 7.74311 17.3834 7.91012 17.3566 8.07293L15.9609 16.539C15.8255 17.3557 14.9295 17.824 14.1805 17.4172C13.554 17.0769 12.6235 16.5526 11.7866 16.0055C11.3681 15.7316 10.0862 14.8547 10.2438 14.2307C10.3792 13.6971 12.5331 11.6921 13.7639 10.5001C14.247 10.0318 14.0267 9.7616 13.4562 10.1924C12.0395 11.262 9.765 12.8885 9.01297 13.3463C8.34957 13.75 8.00371 13.819 7.59016 13.75C6.83568 13.6245 6.13597 13.43 5.56487 13.1931C4.79316 12.8731 4.8307 11.8121 5.56426 11.5032L16.0876 7.07229Z" fill="#003D6E"/>
</svg>
